:SAMPLES-PER-SECOND 24
:FULLY-SPECIFIED
:DEGREES
90
root  5.63915 39.7804 -23.2117 164.058 61.8612 153.324
RightUpLeg  -19.4943 4.66962 -10.459
RightLeg  25.6733 -12.7639 -6.82099
RightFoot  -11.6154 -0.0951506 -6.46794
RightToes  -2.09809e-008 3.77894e-005 6.81332e-007
Spine  1.44344 -1.4426 2.36291
Spine1  -1.4967 -1.34892 -0.985805
HEad  -26.614 40.8457 -19.636
LeftShoulder1  6.00135 -11.8236 -33.1563
LeftArm  10.8936 27.0394 -36.4988
LeftForeArm  173.621 -66.4551 -157.97
LeftHand  0.184373 -4.20939 -1.95478
RightShoulder  3.41578 6.13843 29.5046
RightArm  21.3332 -34.7923 29.8547
RightForeArm  157.714 72.5331 147.535
RightHand  -0.249256 10.4687 -2.23259
LeftUpLeg  -16.1104 12.8477 -4.35731
LeftLeg  24.2438 -1.98693 -0.626752
LeftFoot  -0.26013 2.04047 -20.6352
LeftToes  1.24773e-006 1.46318e-008 1.32523e-009
91
root  5.38321 39.2508 -23.3472 170.301 60.8262 159.505
RightUpLeg  -22.4896 1.61251 -8.25945
RightLeg  30.4358 -10.0965 -6.57856
RightFoot  -13.9193 -0.193451 -4.41676
RightToes  -2.09809e-008 3.77894e-005 6.81332e-007
Spine  3.60663 -1.11414 -0.890315
Spine1  -4.01926 -1.52788 2.77231
HEad  -28.9831 39.528 -19.7616
LeftShoulder1  6.08713 -11.9732 -33.3302
LeftArm  11.1102 25.0224 -36.1612
LeftForeArm  171.434 -66.7035 -157.473
LeftHand  0.0842379 -3.55652 -0.84338
RightShoulder  3.48482 6.25286 29.8021
RightArm  19.173 -33.8924 30.8317
RightForeArm  157.747 72.4734 147.653
RightHand  -0.257789 10.3861 -2.30362
LeftUpLeg  -14.0603 8.66258 -3.8365
LeftLeg  20.196 2.20773 1.23372
LeftFoot  -7.18358 0.483952 -12.1159
LeftToes  1.24773e-006 1.46318e-008 1.32523e-009
92
root  5.03055 38.6789 -23.2345 174.678 56.7439 163.981
RightUpLeg  -25.8501 -3.81387 -7.35171
RightLeg  37.0802 -6.92668 -5.83474
RightFoot  -15.829 -0.182855 -1.90038
RightToes  -2.09809e-008 3.77894e-005 6.81332e-007
Spine  6.28597 -1.25756 -6.25706
Spine1  -5.39993 -2.51303 8.24473
HEad  -32.4684 37.0513 -20.4423
LeftShoulder1  6.40922 -12.3301 -34.4662
LeftArm  11.6846 18.9049 -33.8855
LeftForeArm  167.262 -68.1467 -155.369
LeftHand  -0.0265497 -3.39394 0.591619
RightShoulder  3.60905 6.35959 30.6898
RightArm  16.2915 -31.057 32.4025
RightForeArm  155.485 73.3506 145.533
RightHand  -0.331477 10.1843 -2.87165
LeftUpLeg  -16.2186 2.80972 -2.90815
LeftLeg  21.7643 6.35528 3.11775
LeftFoot  -10.3608 0.135486 -9.18385
LeftToes  1.24773e-006 1.46318e-008 1.32523e-009
93
root  4.76969 38.2978 -23.0523 178.493 50.9616 168.025
RightUpLeg  -27.7471 -11.5999 -6.64617
RightLeg  41.8835 -1.76929 -1.95979
RightFoot  -17.7716 0.0731867 3.30087
RightToes  -2.09809e-008 3.77894e-005 6.81332e-007
Spine  6.47263 -1.71954 -8.59936
Spine1  -3.44383 -3.66578 11.0279
HEad  -35.2133 33.2758 -20.5722
LeftShoulder1  6.6156 -12.601 -35.057
LeftArm  12.4304 10.2854 -32.5383
LeftForeArm  161.699 -71.9866 -149.042
LeftHand  -0.124063 -3.29749 1.90582
RightShoulder  3.70843 6.41036 31.5157
RightArm  12.5482 -28.1579 35.2746
RightForeArm  152.841 74.9346 141.379
RightHand  -0.428228 10.5009 -3.53016
LeftUpLeg  -20.0907 -0.655693 -1.30406
LeftLeg  26.1271 4.22029 2.56032
LeftFoot  -11.2288 0.0759143 -8.78596
LeftToes  1.24773e-006 1.46318e-008 1.32523e-009
94
root  4.75167 38.2144 -22.95 -178.763 47.1576 171.615
RightUpLeg  -26.7866 -15.3386 -6.53928
RightLeg  43.4691 4.49347 4.24521
RightFoot  -20.1527 0.690556 10.6212
RightToes  -2.09809e-008 3.77894e-005 6.81332e-007
Spine  5.71536 -1.31495 -7.03231
Spine1  -1.82343 -3.1976 10.0629
HEad  -34.4641 29.7555 -19.5357
LeftShoulder1  6.69369 -12.7514 -35.1545
LeftArm  12.8751 6.83285 -33.6007
LeftForeArm  160.303 -74.1413 -144.734
LeftHand  -0.141677 -2.94526 2.20108
RightShoulder  3.70147 6.38418 31.5444
RightArm  10.1481 -27.9496 37.2774
RightForeArm  154.105 75.0211 141.415
RightHand  -0.424802 11.1691 -3.39066
LeftUpLeg  -21.82 -1.91471 0.977914
LeftLeg  28.5177 1.5836 1.2819
LeftFoot  -11.8552 0.0337866 -8.14599
LeftToes  1.24773e-006 1.46318e-008 1.32523e-009
95
root  5.00706 38.4542 -22.8156 -177.566 46.3565 173.711
RightUpLeg  -24.0791 -11.9351 -7.5914
RightLeg  42.5488 4.21844 3.84932
RightFoot  -19.9211 0.738568 11.6172
RightToes  -2.09809e-008 3.77894e-005 6.81332e-007
Spine  4.63226 -0.136394 -4.96448
Spine1  -1.16677 -1.53033 7.46005
HEad  -31.4088 28.337 -18.0113
LeftShoulder1  6.55201 -12.5638 -34.7607
LeftArm  12.4285 11.1063 -35.1021
LeftForeArm  165.837 -71.4385 -150.678
LeftHand  -0.117688 -3.01322 1.85669
RightShoulder  3.62977 6.33348 31.0026
RightArm  11.1187 -29.081 37.4864
RightForeArm  157.67 73.2855 146.047
RightHand  -0.368543 11.1618 -2.99771
LeftUpLeg  -20.794 -2.64878 3.0255
LeftLeg  26.991 1.75468 1.31543
LeftFoot  -10.7258 0.11228 -8.95878
LeftToes  1.24773e-006 1.46318e-008 1.32523e-009
96
root  5.47056 38.9541 -22.6056 -176.606 46.0408 175.064
RightUpLeg  -20.9542 -6.11202 -8.60949
RightLeg  40.7944 -5.6125 -5.42641
RightFoot  -14.5601 0.0446239 4.04464
RightToes  -2.09809e-008 3.77894e-005 6.81332e-007
Spine  2.49426 0.765938 -3.50315
Spine1  -0.769027 -0.23737 5.58767
HEad  -26.8678 28.5914 -15.6356
LeftShoulder1  6.29476 -12.1624 -34.1716
LeftArm  11.7218 19.0357 -35.2522
LeftForeArm  169.071 -66.7315 -157.199
LeftHand  -0.0870928 -3.1582 1.41884
RightShoulder  3.58014 6.29252 30.6455
RightArm  14.311 -30.2082 36.3634
RightForeArm  161.191 71.27 150.276
RightHand  -0.28696 10.9085 -2.45651
LeftUpLeg  -18.6744 -3.72517 4.85601
LeftLeg  22.9704 2.38034 1.44625
LeftFoot  -7.58127 0.394511 -10.6291
LeftToes  1.24773e-006 1.46318e-008 1.32523e-009
97
root  6.03991 39.5 -22.3134 -175.467 44.2517 176.312
RightUpLeg  -17.3646 -1.13353 -9.3491
RightLeg  39.3945 -15.1146 -13.1835
RightFoot  -7.6194 0.0901108 -4.46793
RightToes  -2.09809e-008 3.77894e-005 6.81332e-007
Spine  -0.682203 0.886732 -1.94297
Spine1  -0.188175 0.197069 4.05248
HEad  -21.4779 28.7839 -12.2949
LeftShoulder1  6.00311 -11.7866 -33.2623
LeftArm  10.9232 26.744 -34.7064
LeftForeArm  171.411 -63.8175 -160.15
LeftHand  -0.0453142 -3.2766 0.847841
RightShoulder  3.59415 6.308 30.7317
RightArm  16.9436 -31.0886 35.2317
RightForeArm  163.751 70.2745 152.159
RightHand  -0.154414 11.13 -1.50556
LeftUpLeg  -16.9872 -4.60506 6.88632
LeftLeg  18.7074 1.17272 0.778955
LeftFoot  -4.04682 0.77956 -11.8357
LeftToes  1.24773e-006 1.46318e-008 1.32523e-009
98
root  6.5909 39.8223 -21.849 -174.944 41.7139 177.088
RightUpLeg  -13.4272 3.88128 -9.94325
RightLeg  37.5884 -16.2419 -13.2578
RightFoot  -5.37049 0.304657 -6.68573
RightToes  -2.09809e-008 3.77894e-005 6.81332e-007
Spine  -3.09625 0.876034 -0.918843
Spine1  0.404061 0.388378 2.85175
HEad  -17.3498 28.0868 -9.99045
LeftShoulder1  5.95381 -11.751 -33.0319
LeftArm  9.95337 31.9405 -33.3245
LeftForeArm  173.155 -62.7375 -161.175
LeftHand  -0.0419217 -3.2727 0.800268
RightShoulder  3.57031 6.24667 30.718
RightArm  18.11 -31.0232 34.8076
RightForeArm  162.894 70.3497 151.93
RightHand  -0.129025 11.1531 -1.32403
LeftUpLeg  -16.619 -4.38636 8.84462
LeftLeg  16.4276 -1.87849 -0.260195
LeftFoot  -0.795572 1.26627 -13.5931
LeftToes  1.24773e-006 1.46318e-008 1.32523e-009
99
root  7.04825 39.7201 -21.1601 -174.828 39.5243 177.621
RightUpLeg  -10.4418 8.67566 -9.97303
RightLeg  36.3457 -12.7154 -10.1136
RightFoot  -6.99411 0.0376205 -2.23763
RightToes  -2.09809e-008 3.77894e-005 6.81332e-007
Spine  -5.02783 1.0535 -0.0240904
Spine1  2.31997 0.736851 1.53109
HEad  -15.818 26.932 -9.65465
LeftShoulder1  6.0572 -11.8671 -33.407
LeftArm  8.09734 33.2324 -31.9418
LeftForeArm  171.197 -63.0834 -160.711
LeftHand  -0.0768261 -2.7424 1.31337
RightShoulder  3.50264 6.132 30.4478
RightArm  17.8883 -29.0101 35.3145
RightForeArm  159.383 71.342 149.887
RightHand  -0.217269 10.4342 -2.00246
LeftUpLeg  -18.3743 -4.35017 10.8261
LeftLeg  18.1907 -4.54415 -1.34455
LeftFoot  0.429987 1.63595 -15.8128
LeftToes  1.24773e-006 1.46318e-008 1.32523e-009
